<?xml version="1.0" encoding="iso-8859-1"?>
<!-- Generator: Adobe Illustrator 18.0.0, SVG Export Plug-In . SVG Version: 6.00 Build 0)  -->
<!DOCTYPE svg PUBLIC "-//W3C//DTD SVG 1.1//EN" "http://www.w3.org/Graphics/SVG/1.1/DTD/svg11.dtd">
<svg version="1.1" id="Capa_1" xmlns="http://www.w3.org/2000/svg" xmlns:xlink="http://www.w3.org/1999/xlink" x="0px" y="0px"
	fill="#00c99c" viewBox="0 0 487.877 487.877" style="enable-background:new 0 0 487.877 487.877;" xml:space="preserve">
<g>
	<path d="M477.877,325.184h-11.23V84.47c0-5.522-4.479-10-10-10H33.627c-5.523,0-10,4.478-10,10v240.714H10c-5.523,0-10,4.478-10,10
		v39.961c0,21.099,17.164,38.263,38.264,38.263h411.35c21.1,0,38.264-17.164,38.264-38.263v-39.961
		C487.877,329.661,483.4,325.184,477.877,325.184z M446.647,94.47v230.795H43.627V94.47H446.647z M449.613,393.407H38.264
		c-10.07,0-18.264-8.193-18.264-18.263v-29.961h447.877v29.961C467.877,385.214,459.684,393.407,449.613,393.407z"/>
	<path d="M74.592,178.737h23.801L183,251.029v18.976c0,5.523,4.479,10,10,10h25.334c5.523,0,10-4.477,10-10V249.07l41.158-40.778
		h23.168l34.307,24.065v16.437c0,5.523,4.479,10,10,10h25.334c5.523,0,10-4.477,10-10l-0.035-28.058l27.654-41.999h15.76
		c5.523,0,10-4.477,10-10v-25.332c0-5.523-4.477-10-10-10h-25.332c-5.521,0-10,4.477-10,10v28.248l-27.619,41.807h-17.598
		l-34.305-24.063V172.96c0-5.524-4.477-10-10-10h-25.332c-5.521,0-10,4.476-10,10v21.046l-41.045,40.667h-19.805l-84.721-72.389
		v-18.879c0-5.523-4.476-10-10-10H74.592c-5.521,0-10,4.477-10,10v25.332C64.592,174.261,69.07,178.737,74.592,178.737z"/>
	<path d="M264.438,358.94h-41c-5.521,0-10,4.477-10,10c0,5.523,4.479,10,10,10h41c5.523,0,10-4.477,10-10
		C274.438,363.417,269.961,358.94,264.438,358.94z"/>
</g>
<g>
</g>
<g>
</g>
<g>
</g>
<g>
</g>
<g>
</g>
<g>
</g>
<g>
</g>
<g>
</g>
<g>
</g>
<g>
</g>
<g>
</g>
<g>
</g>
<g>
</g>
<g>
</g>
<g>
</g>
</svg>
